<svg xmlns="http://www.w3.org/2000/svg" xmlns:xlink="http://www.w3.org/1999/xlink" width="500" zoomAndPan="magnify" viewBox="0 0 375 170.249993" height="227" preserveAspectRatio="xMidYMid meet" version="1.0"><defs><filter x="0%" y="0%" width="100%" height="100%" id="596c33d2aa"><feColorMatrix values="0 0 0 0 1 0 0 0 0 1 0 0 0 0 1 0 0 0 1 0" color-interpolation-filters="sRGB"/></filter><g/><clipPath id="38c69dd84e"><path d="M 0.824219 0 L 374.175781 0 L 374.175781 169.503906 L 0.824219 169.503906 Z M 0.824219 0 " clip-rule="nonzero"/></clipPath><clipPath id="b31a49b826"><path d="M 301.984375 32 L 354 32 L 354 137 L 301.984375 137 Z M 301.984375 32 " clip-rule="nonzero"/></clipPath><clipPath id="ef8288d3ec"><path d="M 301.984375 53 L 303 53 L 303 85 L 301.984375 85 Z M 301.984375 53 " clip-rule="nonzero"/></clipPath><clipPath id="56605ed66a"><path d="M 301.984375 84 L 303 84 L 303 116 L 301.984375 116 Z M 301.984375 84 " clip-rule="nonzero"/></clipPath><clipPath id="cd458ac332"><path d="M 301.984375 16.054688 L 312 16.054688 L 312 85 L 301.984375 85 Z M 301.984375 16.054688 " clip-rule="nonzero"/></clipPath><clipPath id="16b85271e1"><path d="M 302 16.054688 L 312 16.054688 L 312 85 L 302 85 Z M 302 16.054688 " clip-rule="nonzero"/></clipPath><clipPath id="bd19c76bbc"><path d="M 301.984375 84 L 312 84 L 312 152.703125 L 301.984375 152.703125 Z M 301.984375 84 " clip-rule="nonzero"/></clipPath><clipPath id="b98e0b8afa"><path d="M 301.984375 84 L 303 84 L 303 152.703125 L 301.984375 152.703125 Z M 301.984375 84 " clip-rule="nonzero"/></clipPath><clipPath id="287cb3bce4"><path d="M 301.984375 75 L 303 75 L 303 94 L 301.984375 94 Z M 301.984375 75 " clip-rule="nonzero"/></clipPath><clipPath id="3f8da1c31d"><path d="M 301.984375 75 L 303 75 L 303 85 L 301.984375 85 Z M 301.984375 75 " clip-rule="nonzero"/></clipPath><clipPath id="586f52708f"><path d="M 302 75 L 369.933594 75 L 369.933594 94 L 302 94 Z M 302 75 " clip-rule="nonzero"/></clipPath><clipPath id="5bd4a1175a"><path d="M 302 84 L 369.933594 84 L 369.933594 94 L 302 94 Z M 302 84 " clip-rule="nonzero"/></clipPath><clipPath id="ffed26036a"><path d="M 190 93 L 245 93 L 245 95 L 190 95 Z M 190 93 " clip-rule="nonzero"/></clipPath><clipPath id="a649fd881c"><path d="M 222.027344 62.542969 L 253.179688 93.695312 L 221.5 125.375 L 190.347656 94.222656 Z M 222.027344 62.542969 " clip-rule="nonzero"/></clipPath><clipPath id="b36091ec3c"><path d="M 222.027344 62.542969 L 253.179688 93.695312 L 221.5 125.375 L 190.347656 94.222656 Z M 222.027344 62.542969 " clip-rule="nonzero"/></clipPath><clipPath id="b100d5058e"><path d="M 240 91 L 242 91 L 242 97 L 240 97 Z M 240 91 " clip-rule="nonzero"/></clipPath><clipPath id="a92af009ba"><path d="M 222.027344 62.542969 L 253.179688 93.695312 L 221.5 125.375 L 190.347656 94.222656 Z M 222.027344 62.542969 " clip-rule="nonzero"/></clipPath><clipPath id="ff6404cd71"><path d="M 222.027344 62.542969 L 253.179688 93.695312 L 221.5 125.375 L 190.347656 94.222656 Z M 222.027344 62.542969 " clip-rule="nonzero"/></clipPath><clipPath id="4f66168071"><path d="M 240 96 L 242 96 L 242 99 L 240 99 Z M 240 96 " clip-rule="nonzero"/></clipPath><clipPath id="cfa9cb8da3"><path d="M 222.027344 62.542969 L 253.179688 93.695312 L 221.5 125.375 L 190.347656 94.222656 Z M 222.027344 62.542969 " clip-rule="nonzero"/></clipPath><clipPath id="f10d62cc43"><path d="M 222.027344 62.542969 L 253.179688 93.695312 L 221.5 125.375 L 190.347656 94.222656 Z M 222.027344 62.542969 " clip-rule="nonzero"/></clipPath><clipPath id="ff5ee99839"><path d="M 240 89 L 242 89 L 242 92 L 240 92 Z M 240 89 " clip-rule="nonzero"/></clipPath><clipPath id="c31fa08de5"><path d="M 222.027344 62.542969 L 253.179688 93.695312 L 221.5 125.375 L 190.347656 94.222656 Z M 222.027344 62.542969 " clip-rule="nonzero"/></clipPath><clipPath id="78484c5a59"><path d="M 222.027344 62.542969 L 253.179688 93.695312 L 221.5 125.375 L 190.347656 94.222656 Z M 222.027344 62.542969 " clip-rule="nonzero"/></clipPath><clipPath id="890d5c13a6"><path d="M 241 92 L 254 92 L 254 96 L 241 96 Z M 241 92 " clip-rule="nonzero"/></clipPath><clipPath id="3924b69ccc"><path d="M 222.027344 62.542969 L 253.179688 93.695312 L 221.5 125.375 L 190.347656 94.222656 Z M 222.027344 62.542969 " clip-rule="nonzero"/></clipPath><clipPath id="09f67bc08b"><path d="M 222.027344 62.542969 L 253.179688 93.695312 L 221.5 125.375 L 190.347656 94.222656 Z M 222.027344 62.542969 " clip-rule="nonzero"/></clipPath><clipPath id="fb4b7f5f76"><path d="M 0.824219 0 L 374.175781 0 L 374.175781 169.503906 L 0.824219 169.503906 Z M 0.824219 0 " clip-rule="nonzero"/></clipPath><clipPath id="2809f70068"><path d="M 0.824219 0 L 374.175781 0 L 374.175781 169.503906 L 0.824219 169.503906 Z M 0.824219 0 " clip-rule="nonzero"/></clipPath><clipPath id="9e07001f0d"><path d="M 0.824219 0 L 374.175781 0 L 374.175781 169.503906 L 0.824219 169.503906 Z M 0.824219 0 " clip-rule="nonzero"/></clipPath><clipPath id="a7736d3ce3"><path d="M 0.824219 0 L 374.175781 0 L 374.175781 169.503906 L 0.824219 169.503906 Z M 0.824219 0 " clip-rule="nonzero"/></clipPath><linearGradient x1="136.906006" gradientTransform="matrix(1.097606, 0.000000000000000034, -0.000000000000000034, 1.096932, 7.63309, 35.197204)" y1="-32.086946" x2="136.906006" gradientUnits="userSpaceOnUse" y2="122.437897" id="eb4a71a4c0"><stop stop-opacity="1" stop-color="rgb(56.858826%, 38.819885%, 4.309082%)" offset="0"/><stop stop-opacity="1" stop-color="rgb(56.858826%, 38.819885%, 4.309082%)" offset="0.25"/><stop stop-opacity="1" stop-color="rgb(56.858826%, 38.819885%, 4.309082%)" offset="0.265625"/><stop stop-opacity="1" stop-color="rgb(57.348633%, 39.364624%, 4.855347%)" offset="0.269531"/><stop stop-opacity="1" stop-color="rgb(57.83844%, 39.910889%, 5.401611%)" offset="0.273438"/><stop stop-opacity="1" stop-color="rgb(58.345032%, 40.475464%, 5.966187%)" offset="0.277344"/><stop stop-opacity="1" stop-color="rgb(58.853149%, 41.041565%, 6.532288%)" offset="0.28125"/><stop stop-opacity="1" stop-color="rgb(59.359741%, 41.60614%, 7.096863%)" offset="0.285156"/><stop stop-opacity="1" stop-color="rgb(59.867859%, 42.172241%, 7.662964%)" offset="0.289062"/><stop stop-opacity="1" stop-color="rgb(60.374451%, 42.736816%, 8.227539%)" offset="0.292969"/><stop stop-opacity="1" stop-color="rgb(60.882568%, 43.302917%, 8.79364%)" offset="0.296875"/><stop stop-opacity="1" stop-color="rgb(61.38916%, 43.867493%, 9.358215%)" offset="0.300781"/><stop stop-opacity="1" stop-color="rgb(61.897278%, 44.433594%, 9.924316%)" offset="0.304687"/><stop stop-opacity="1" stop-color="rgb(62.40387%, 44.998169%, 10.488892%)" offset="0.308594"/><stop stop-opacity="1" stop-color="rgb(62.911987%, 45.56427%, 11.053467%)" offset="0.3125"/><stop stop-opacity="1" stop-color="rgb(63.418579%, 46.128845%, 11.618042%)" offset="0.316406"/><stop stop-opacity="1" stop-color="rgb(63.926697%, 46.694946%, 12.184143%)" offset="0.320312"/><stop stop-opacity="1" stop-color="rgb(64.433289%, 47.259521%, 12.748718%)" offset="0.324219"/><stop stop-opacity="1" stop-color="rgb(64.941406%, 47.825623%, 13.314819%)" offset="0.328125"/><stop stop-opacity="1" stop-color="rgb(65.447998%, 48.390198%, 13.879395%)" offset="0.332031"/><stop stop-opacity="1" stop-color="rgb(65.956116%, 48.956299%, 14.445496%)" offset="0.335938"/><stop stop-opacity="1" stop-color="rgb(66.462708%, 49.520874%, 15.010071%)" offset="0.339844"/><stop stop-opacity="1" stop-color="rgb(66.970825%, 50.086975%, 15.576172%)" offset="0.34375"/><stop stop-opacity="1" stop-color="rgb(67.477417%, 50.65155%, 16.140747%)" offset="0.347656"/><stop stop-opacity="1" stop-color="rgb(67.984009%, 51.217651%, 16.706848%)" offset="0.351562"/><stop stop-opacity="1" stop-color="rgb(68.490601%, 51.782227%, 17.271423%)" offset="0.355469"/><stop stop-opacity="1" stop-color="rgb(68.998718%, 52.348328%, 17.837524%)" offset="0.359375"/><stop stop-opacity="1" stop-color="rgb(69.50531%, 52.912903%, 18.4021%)" offset="0.363281"/><stop stop-opacity="1" stop-color="rgb(70.013428%, 53.479004%, 18.968201%)" offset="0.367188"/><stop stop-opacity="1" stop-color="rgb(70.52002%, 54.043579%, 19.532776%)" offset="0.371094"/><stop stop-opacity="1" stop-color="rgb(71.028137%, 54.60968%, 20.098877%)" offset="0.375"/><stop stop-opacity="1" stop-color="rgb(71.534729%, 55.174255%, 20.663452%)" offset="0.378906"/><stop stop-opacity="1" stop-color="rgb(72.042847%, 55.740356%, 21.229553%)" offset="0.382812"/><stop stop-opacity="1" stop-color="rgb(72.549438%, 56.304932%, 21.794128%)" offset="0.386719"/><stop stop-opacity="1" stop-color="rgb(73.057556%, 56.869507%, 22.360229%)" offset="0.390625"/><stop stop-opacity="1" stop-color="rgb(73.564148%, 57.434082%, 22.924805%)" offset="0.394531"/><stop stop-opacity="1" stop-color="rgb(74.072266%, 58.000183%, 23.490906%)" offset="0.398438"/><stop stop-opacity="1" stop-color="rgb(74.578857%, 58.564758%, 24.055481%)" offset="0.402344"/><stop stop-opacity="1" stop-color="rgb(75.086975%, 59.130859%, 24.621582%)" offset="0.40625"/><stop stop-opacity="1" stop-color="rgb(75.593567%, 59.695435%, 25.186157%)" offset="0.410156"/><stop stop-opacity="1" stop-color="rgb(76.101685%, 60.261536%, 25.752258%)" offset="0.414062"/><stop stop-opacity="1" stop-color="rgb(76.608276%, 60.826111%, 26.316833%)" offset="0.417969"/><stop stop-opacity="1" stop-color="rgb(77.116394%, 61.392212%, 26.882935%)" offset="0.421875"/><stop stop-opacity="1" stop-color="rgb(77.622986%, 61.956787%, 27.44751%)" offset="0.425781"/><stop stop-opacity="1" stop-color="rgb(78.131104%, 62.522888%, 28.013611%)" offset="0.429688"/><stop stop-opacity="1" stop-color="rgb(78.637695%, 63.087463%, 28.578186%)" offset="0.433594"/><stop stop-opacity="1" stop-color="rgb(79.144287%, 63.653564%, 29.144287%)" offset="0.4375"/><stop stop-opacity="1" stop-color="rgb(79.650879%, 64.21814%, 29.708862%)" offset="0.441406"/><stop stop-opacity="1" stop-color="rgb(80.158997%, 64.784241%, 30.274963%)" offset="0.445312"/><stop stop-opacity="1" stop-color="rgb(80.665588%, 65.348816%, 30.839539%)" offset="0.449219"/><stop stop-opacity="1" stop-color="rgb(81.173706%, 65.914917%, 31.40564%)" offset="0.453125"/><stop stop-opacity="1" stop-color="rgb(81.680298%, 66.479492%, 31.970215%)" offset="0.457031"/><stop stop-opacity="1" stop-color="rgb(82.188416%, 67.045593%, 32.536316%)" offset="0.460937"/><stop stop-opacity="1" stop-color="rgb(82.695007%, 67.610168%, 33.100891%)" offset="0.464844"/><stop stop-opacity="1" stop-color="rgb(83.203125%, 68.17627%, 33.666992%)" offset="0.46875"/><stop stop-opacity="1" stop-color="rgb(83.709717%, 68.740845%, 34.231567%)" offset="0.472656"/><stop stop-opacity="1" stop-color="rgb(84.217834%, 69.306946%, 34.796143%)" offset="0.476562"/><stop stop-opacity="1" stop-color="rgb(84.724426%, 69.871521%, 35.360718%)" offset="0.480469"/><stop stop-opacity="1" stop-color="rgb(85.232544%, 70.437622%, 35.926819%)" offset="0.484375"/><stop stop-opacity="1" stop-color="rgb(85.739136%, 71.002197%, 36.491394%)" offset="0.488281"/><stop stop-opacity="1" stop-color="rgb(86.247253%, 71.568298%, 37.057495%)" offset="0.492187"/><stop stop-opacity="1" stop-color="rgb(86.753845%, 72.132874%, 37.62207%)" offset="0.496094"/><stop stop-opacity="1" stop-color="rgb(87.261963%, 72.698975%, 38.188171%)" offset="0.5"/><stop stop-opacity="1" stop-color="rgb(87.768555%, 73.26355%, 38.752747%)" offset="0.503906"/><stop stop-opacity="1" stop-color="rgb(88.276672%, 73.829651%, 39.318848%)" offset="0.507812"/><stop stop-opacity="1" stop-color="rgb(88.783264%, 74.394226%, 39.883423%)" offset="0.511719"/><stop stop-opacity="1" stop-color="rgb(89.289856%, 74.960327%, 40.449524%)" offset="0.515625"/><stop stop-opacity="1" stop-color="rgb(89.796448%, 75.524902%, 41.014099%)" offset="0.519531"/><stop stop-opacity="1" stop-color="rgb(90.304565%, 76.091003%, 41.5802%)" offset="0.523438"/><stop stop-opacity="1" stop-color="rgb(90.811157%, 76.655579%, 42.144775%)" offset="0.527344"/><stop stop-opacity="1" stop-color="rgb(91.319275%, 77.22168%, 42.710876%)" offset="0.53125"/><stop stop-opacity="1" stop-color="rgb(91.825867%, 77.786255%, 43.275452%)" offset="0.535156"/><stop stop-opacity="1" stop-color="rgb(92.333984%, 78.352356%, 43.841553%)" offset="0.539062"/><stop stop-opacity="1" stop-color="rgb(92.840576%, 78.916931%, 44.406128%)" offset="0.542969"/><stop stop-opacity="1" stop-color="rgb(93.348694%, 79.483032%, 44.972229%)" offset="0.546875"/><stop stop-opacity="1" stop-color="rgb(93.855286%, 80.047607%, 45.536804%)" offset="0.550781"/><stop stop-opacity="1" stop-color="rgb(94.363403%, 80.612183%, 46.102905%)" offset="0.554688"/><stop stop-opacity="1" stop-color="rgb(94.869995%, 81.176758%, 46.66748%)" offset="0.558594"/><stop stop-opacity="1" stop-color="rgb(95.378113%, 81.742859%, 47.233582%)" offset="0.5625"/><stop stop-opacity="1" stop-color="rgb(95.884705%, 82.307434%, 47.798157%)" offset="0.566406"/><stop stop-opacity="1" stop-color="rgb(96.392822%, 82.873535%, 48.364258%)" offset="0.570312"/><stop stop-opacity="1" stop-color="rgb(96.899414%, 83.43811%, 48.928833%)" offset="0.574219"/><stop stop-opacity="1" stop-color="rgb(97.407532%, 84.004211%, 49.494934%)" offset="0.578125"/><stop stop-opacity="1" stop-color="rgb(97.723389%, 84.356689%, 49.847412%)" offset="0.582031"/><stop stop-opacity="1" stop-color="rgb(98.039246%, 84.709167%, 50.19989%)" offset="0.585938"/><stop stop-opacity="1" stop-color="rgb(98.039246%, 84.709167%, 50.19989%)" offset="0.59375"/><stop stop-opacity="1" stop-color="rgb(98.039246%, 84.709167%, 50.19989%)" offset="0.625"/><stop stop-opacity="1" stop-color="rgb(98.039246%, 84.709167%, 50.19989%)" offset="0.75"/><stop stop-opacity="1" stop-color="rgb(98.039246%, 84.709167%, 50.19989%)" offset="1"/></linearGradient><clipPath id="4a7d8222a2"><rect x="0" width="375" y="0" height="170"/></clipPath><clipPath id="b68f2228a6"><path d="M 0.824219 0 L 374.175781 0 L 374.175781 169.503906 L 0.824219 169.503906 Z M 0.824219 0 " clip-rule="nonzero"/></clipPath><clipPath id="2b30588589"><rect x="0" width="375" y="0" height="170"/></clipPath><clipPath id="cdc71f0edb"><rect x="0" width="375" y="0" height="170"/></clipPath><mask id="3eff3d9fe7"><g filter="url(#596c33d2aa)"><g transform="matrix(1, 0, 0, 1, 0.000000000000000111, 0)"><g clip-path="url(#cdc71f0edb)"><g clip-path="url(#b68f2228a6)"><g transform="matrix(1, 0, 0, 1, 0.000000000000000111, 0)"><g clip-path="url(#2b30588589)"><g fill="#000000" fill-opacity="1"><g transform="translate(20.95141, 84.552772)"><g><path d="M 3.765625 -11.4375 L 3.765625 -32.3125 L 11.8125 -32.3125 L 11.8125 -17.828125 L 7.78125 -11.4375 Z M 3.765625 -11.4375 "/></g></g></g><g fill="#000000" fill-opacity="1"><g transform="translate(36.253244, 84.552772)"><g><path d="M 8.859375 -32.3125 L 28.71875 -32.3125 L 28.71875 -27.375 L 18.3125 0 L 9.875 0 L 19.96875 -25.5625 L 0.8125 -25.5625 L 0.8125 -40.796875 L 8.859375 -40.796875 Z M 8.859375 -32.3125 "/></g></g></g><g fill="#000000" fill-opacity="1"><g transform="translate(66.588478, 84.552772)"><g><path d="M 1.34375 0 L 1.34375 -6.765625 L 11.921875 -6.765625 C 14.710938 -6.765625 16.929688 -7.441406 18.578125 -8.796875 C 20.222656 -10.160156 21.046875 -12.523438 21.046875 -15.890625 C 21.046875 -19.179688 20.222656 -21.613281 18.578125 -23.1875 C 16.929688 -24.769531 14.710938 -25.5625 11.921875 -25.5625 L 1.34375 -25.5625 L 1.34375 -32.3125 L 12.453125 -32.3125 C 15.890625 -32.3125 18.867188 -31.648438 21.390625 -30.328125 C 23.910156 -29.003906 25.851562 -27.125 27.21875 -24.6875 C 28.582031 -22.257812 29.265625 -19.378906 29.265625 -16.046875 C 29.265625 -10.828125 27.773438 -6.847656 24.796875 -4.109375 C 21.828125 -1.367188 17.710938 0 12.453125 0 Z M 1.34375 0 "/></g></g></g><g fill="#000000" fill-opacity="1"><g transform="translate(97.19213, 84.552772)"><g><path d="M 8.859375 -32.3125 L 28.71875 -32.3125 L 28.71875 -27.375 L 18.3125 0 L 9.875 0 L 19.96875 -25.5625 L 0.8125 -25.5625 L 0.8125 -40.796875 L 8.859375 -40.796875 Z M 8.859375 -32.3125 "/></g></g></g><g fill="#000000" fill-opacity="1"><g transform="translate(127.527364, 84.552772)"><g><path d="M 1.34375 0 L 1.34375 -6.765625 L 11.921875 -6.765625 C 14.710938 -6.765625 16.929688 -7.441406 18.578125 -8.796875 C 20.222656 -10.160156 21.046875 -12.523438 21.046875 -15.890625 C 21.046875 -19.179688 20.222656 -21.613281 18.578125 -23.1875 C 16.929688 -24.769531 14.710938 -25.5625 11.921875 -25.5625 L 1.34375 -25.5625 L 1.34375 -32.3125 L 12.453125 -32.3125 C 15.890625 -32.3125 18.867188 -31.648438 21.390625 -30.328125 C 23.910156 -29.003906 25.851562 -27.125 27.21875 -24.6875 C 28.582031 -22.257812 29.265625 -19.378906 29.265625 -16.046875 C 29.265625 -10.828125 27.773438 -6.847656 24.796875 -4.109375 C 21.828125 -1.367188 17.710938 0 12.453125 0 Z M 1.34375 0 "/></g></g></g><g fill="#000000" fill-opacity="1"><g transform="translate(159.204855, 84.552772)"><g/></g></g><g fill="#000000" fill-opacity="1"><g transform="translate(169.191325, 84.552772)"><g><path d="M 6.390625 12.890625 L 6.390625 -22.8125 C 6.390625 -23.707031 6.207031 -24.390625 5.84375 -24.859375 C 5.488281 -25.328125 4.847656 -25.5625 3.921875 -25.5625 L 0.8125 -25.5625 L 0.8125 -32.3125 L 6.28125 -32.3125 C 8.894531 -32.3125 10.90625 -31.578125 12.3125 -30.109375 C 13.726562 -28.648438 14.4375 -26.5625 14.4375 -23.84375 L 14.4375 12.890625 Z M 6.390625 12.890625 "/></g></g></g><g fill="#000000" fill-opacity="1"><g transform="translate(187.66091, 84.552772)"><g><path d="M 2.421875 0 L 2.421875 -6.765625 L 16.640625 -6.765625 C 19.148438 -6.765625 21.070312 -7.441406 22.40625 -8.796875 C 23.75 -10.160156 24.421875 -12.472656 24.421875 -15.734375 C 24.421875 -19.097656 23.671875 -21.578125 22.171875 -23.171875 C 20.671875 -24.765625 18.378906 -25.5625 15.296875 -25.5625 L 10.46875 -25.5625 L 10.46875 -23.46875 C 10.46875 -22.03125 10.628906 -20.953125 10.953125 -20.234375 C 11.273438 -19.523438 11.726562 -19.046875 12.3125 -18.796875 C 12.90625 -18.546875 13.578125 -18.421875 14.328125 -18.421875 C 14.617188 -18.421875 14.894531 -18.425781 15.15625 -18.4375 C 15.425781 -18.457031 15.6875 -18.484375 15.9375 -18.515625 L 15.9375 -11.75 C 15.550781 -11.71875 15.113281 -11.679688 14.625 -11.640625 C 14.144531 -11.609375 13.707031 -11.59375 13.3125 -11.59375 C 9.800781 -11.59375 7.109375 -12.585938 5.234375 -14.578125 C 3.359375 -16.566406 2.421875 -19.382812 2.421875 -23.03125 L 2.421875 -32.3125 L 15.84375 -32.3125 C 19.3125 -32.3125 22.296875 -31.660156 24.796875 -30.359375 C 27.304688 -29.054688 29.238281 -27.175781 30.59375 -24.71875 C 31.957031 -22.269531 32.640625 -19.328125 32.640625 -15.890625 C 32.640625 -12.492188 31.976562 -9.613281 30.65625 -7.25 C 29.332031 -4.882812 27.46875 -3.082031 25.0625 -1.84375 C 22.664062 -0.613281 19.859375 0 16.640625 0 Z M 2.421875 0 "/></g></g></g><g fill="#000000" fill-opacity="1"><g transform="translate(222.720919, 84.552772)"><g><path d="M 1.71875 0 L 1.71875 -6.8125 L 19.484375 -6.8125 L 1.078125 -32.3125 L 10.359375 -32.3125 L 20.671875 -17.390625 C 21.453125 -18.140625 22.015625 -19.210938 22.359375 -20.609375 C 22.703125 -22.003906 22.875 -23.65625 22.875 -25.5625 L 22.875 -32.3125 L 30.921875 -32.3125 L 30.921875 -25.875 C 30.921875 -22.476562 30.300781 -19.585938 29.0625 -17.203125 C 27.832031 -14.828125 26.320312 -13.066406 24.53125 -11.921875 L 29.421875 -5.15625 L 29.421875 0 Z M 1.71875 0 "/></g></g></g><g fill="#000000" fill-opacity="1"><g transform="translate(256.062825, 84.552772)"><g><path d="M 21.90625 -32.859375 C 24.269531 -32.859375 26.3125 -32.335938 28.03125 -31.296875 C 29.75 -30.265625 31.082031 -28.796875 32.03125 -26.890625 C 32.976562 -24.992188 33.453125 -22.773438 33.453125 -20.234375 L 33.453125 0 L 16.265625 0 L 16.265625 -6.765625 L 25.390625 -6.765625 L 25.390625 -19.484375 C 25.390625 -23.640625 23.582031 -25.71875 19.96875 -25.71875 C 17.789062 -25.71875 16.09375 -24.9375 14.875 -23.375 C 13.65625 -21.820312 12.847656 -19.414062 12.453125 -16.15625 L 10.46875 0 L 2.421875 0 L 4.9375 -20.671875 L 2.515625 -32.3125 L 10.578125 -32.3125 L 11.546875 -27.0625 L 11.75 -27.0625 C 12.289062 -27.8125 12.972656 -28.640625 13.796875 -29.546875 C 14.617188 -30.460938 15.671875 -31.242188 16.953125 -31.890625 C 18.242188 -32.535156 19.894531 -32.859375 21.90625 -32.859375 Z M 21.90625 -32.859375 "/></g></g></g></g></g></g></g></g></g></mask><clipPath id="6d82b4576d"><path d="M 0.824219 0 L 374.175781 0 L 374.175781 169.503906 L 0.824219 169.503906 Z M 0.824219 0 " clip-rule="nonzero"/></clipPath><clipPath id="119ecbdd06"><rect x="0" width="375" y="0" height="170"/></clipPath><clipPath id="7a1e2ee0bf"><rect x="0" width="375" y="0" height="170"/></clipPath><clipPath id="ca246c4ace"><rect x="0" width="375" y="0" height="170"/></clipPath><clipPath id="4fc0b951db"><path d="M 0.664062 17 L 1 17 L 1 18 L 0.664062 18 Z M 0.664062 17 " clip-rule="nonzero"/></clipPath><clipPath id="5ed83dcb61"><rect x="0" width="243" y="0" height="23"/></clipPath><clipPath id="0a857210e6"><path d="M 114 92 L 169 92 L 169 95 L 114 95 Z M 114 92 " clip-rule="nonzero"/></clipPath><clipPath id="a188dac469"><path d="M 137.175781 125.050781 L 106.023438 93.898438 L 137.703125 62.21875 L 168.855469 93.371094 Z M 137.175781 125.050781 " clip-rule="nonzero"/></clipPath><clipPath id="7b5e0d980b"><path d="M 137.175781 125.050781 L 106.023438 93.898438 L 137.703125 62.21875 L 168.855469 93.371094 Z M 137.175781 125.050781 " clip-rule="nonzero"/></clipPath><clipPath id="a182f465d2"><path d="M 118 90 L 119 90 L 119 97 L 118 97 Z M 118 90 " clip-rule="nonzero"/></clipPath><clipPath id="c8793d1ea6"><path d="M 137.175781 125.050781 L 106.023438 93.898438 L 137.703125 62.21875 L 168.855469 93.371094 Z M 137.175781 125.050781 " clip-rule="nonzero"/></clipPath><clipPath id="71af0ccb1a"><path d="M 137.175781 125.050781 L 106.023438 93.898438 L 137.703125 62.21875 L 168.855469 93.371094 Z M 137.175781 125.050781 " clip-rule="nonzero"/></clipPath><clipPath id="946873b998"><path d="M 117 89 L 119 89 L 119 92 L 117 92 Z M 117 89 " clip-rule="nonzero"/></clipPath><clipPath id="fb473885d1"><path d="M 137.175781 125.050781 L 106.023438 93.898438 L 137.703125 62.21875 L 168.855469 93.371094 Z M 137.175781 125.050781 " clip-rule="nonzero"/></clipPath><clipPath id="0f26fe8f29"><path d="M 137.175781 125.050781 L 106.023438 93.898438 L 137.703125 62.21875 L 168.855469 93.371094 Z M 137.175781 125.050781 " clip-rule="nonzero"/></clipPath><clipPath id="d031015107"><path d="M 117 96 L 119 96 L 119 98 L 117 98 Z M 117 96 " clip-rule="nonzero"/></clipPath><clipPath id="e1b69127d3"><path d="M 137.175781 125.050781 L 106.023438 93.898438 L 137.703125 62.21875 L 168.855469 93.371094 Z M 137.175781 125.050781 " clip-rule="nonzero"/></clipPath><clipPath id="4ddc659a1b"><path d="M 137.175781 125.050781 L 106.023438 93.898438 L 137.703125 62.21875 L 168.855469 93.371094 Z M 137.175781 125.050781 " clip-rule="nonzero"/></clipPath><clipPath id="10e51534c6"><path d="M 106 91 L 118 91 L 118 96 L 106 96 Z M 106 91 " clip-rule="nonzero"/></clipPath><clipPath id="0f241d24fc"><path d="M 137.175781 125.050781 L 106.023438 93.898438 L 137.703125 62.21875 L 168.855469 93.371094 Z M 137.175781 125.050781 " clip-rule="nonzero"/></clipPath><clipPath id="e7b396caf2"><path d="M 137.175781 125.050781 L 106.023438 93.898438 L 137.703125 62.21875 L 168.855469 93.371094 Z M 137.175781 125.050781 " clip-rule="nonzero"/></clipPath><clipPath id="68f898c3b1"><rect x="0" width="375" y="0" height="170"/></clipPath></defs><g clip-path="url(#38c69dd84e)"><g transform="matrix(1, 0, 0, 1, 0.000000000000000111, 0)"><g clip-path="url(#68f898c3b1)"><g clip-path="url(#b31a49b826)"><path fill="#2a4c6d" d="M 302.257812 32.75 C 273.742188 32.75 250.628906 55.863281 250.628906 84.378906 C 250.628906 112.894531 273.742188 136.007812 302.257812 136.007812 C 330.769531 136.007812 353.886719 112.894531 353.886719 84.378906 C 353.886719 55.867188 330.769531 32.75 302.257812 32.75 Z M 302.257812 132.859375 C 275.480469 132.859375 253.773438 111.15625 253.773438 84.378906 C 253.773438 57.601562 275.480469 35.898438 302.257812 35.898438 C 329.03125 35.898438 350.738281 57.601562 350.738281 84.378906 C 350.738281 111.15625 329.035156 132.859375 302.257812 132.859375 Z M 302.257812 132.859375 " fill-opacity="1" fill-rule="nonzero"/></g><g clip-path="url(#ef8288d3ec)"><path fill="#042947" d="M 302.257812 75.824219 L 302.257812 84.378906 L 293.703125 84.378906 L 293.472656 84.066406 L 283.191406 69.914062 L 270.964844 53.085938 L 287.792969 65.3125 L 301.945312 75.59375 Z M 302.257812 75.824219 " fill-opacity="1" fill-rule="nonzero"/><path fill="#2a4c6d" d="M 301.945312 75.59375 L 287.792969 65.3125 L 270.964844 53.085938 L 302.257812 84.378906 L 302.257812 75.824219 Z M 301.945312 75.59375 " fill-opacity="1" fill-rule="nonzero"/></g><path fill="#042947" d="M 302.257812 92.933594 L 302.257812 84.378906 L 310.8125 84.378906 L 311.039062 84.691406 L 321.320312 98.84375 L 333.550781 115.671875 L 316.71875 103.445312 L 302.570312 93.164062 Z M 302.257812 92.933594 " fill-opacity="1" fill-rule="nonzero"/><path fill="#2a4c6d" d="M 302.570312 93.164062 L 316.71875 103.445312 L 333.550781 115.671875 L 302.257812 84.378906 L 302.257812 92.933594 Z M 302.570312 93.164062 " fill-opacity="1" fill-rule="nonzero"/><g clip-path="url(#56605ed66a)"><path fill="#042947" d="M 293.703125 84.378906 L 302.257812 84.378906 L 302.257812 92.933594 L 301.941406 93.164062 L 287.792969 103.445312 L 270.964844 115.671875 L 283.191406 98.84375 L 293.472656 84.691406 Z M 293.703125 84.378906 " fill-opacity="1" fill-rule="nonzero"/><path fill="#2a4c6d" d="M 293.472656 84.691406 L 283.191406 98.84375 L 270.964844 115.671875 L 302.257812 84.378906 L 293.703125 84.378906 Z M 293.472656 84.691406 " fill-opacity="1" fill-rule="nonzero"/></g><path fill="#042947" d="M 310.8125 84.378906 L 302.257812 84.378906 L 302.257812 75.824219 L 302.570312 75.59375 L 316.71875 65.3125 L 333.550781 53.085938 L 321.320312 69.914062 L 311.042969 84.066406 Z M 310.8125 84.378906 " fill-opacity="1" fill-rule="nonzero"/><path fill="#2a4c6d" d="M 311.042969 84.066406 L 321.320312 69.914062 L 333.550781 53.085938 L 302.257812 84.378906 L 310.8125 84.378906 Z M 311.042969 84.066406 " fill-opacity="1" fill-rule="nonzero"/><g clip-path="url(#cd458ac332)"><path fill="#042947" d="M 311.597656 75.039062 L 302.257812 84.378906 L 292.917969 75.039062 L 293.011719 74.449219 L 297.234375 47.777344 L 302.257812 16.054688 L 307.28125 47.777344 L 311.503906 74.449219 Z M 311.597656 75.039062 " fill-opacity="1" fill-rule="nonzero"/></g><g clip-path="url(#16b85271e1)"><path fill="#2a4c6d" d="M 311.503906 74.449219 L 307.28125 47.777344 L 302.257812 16.054688 L 302.257812 84.378906 L 311.597656 75.039062 Z M 311.503906 74.449219 " fill-opacity="1" fill-rule="nonzero"/></g><g clip-path="url(#bd19c76bbc)"><path fill="#042947" d="M 292.917969 93.71875 L 302.257812 84.378906 L 311.597656 93.71875 L 311.503906 94.3125 L 307.28125 120.980469 L 302.257812 152.703125 L 297.234375 120.980469 L 293.011719 94.3125 Z M 292.917969 93.71875 " fill-opacity="1" fill-rule="nonzero"/></g><g clip-path="url(#b98e0b8afa)"><path fill="#2a4c6d" d="M 293.011719 94.3125 L 297.234375 120.980469 L 302.257812 152.703125 L 302.257812 84.378906 L 292.917969 93.71875 Z M 293.011719 94.3125 " fill-opacity="1" fill-rule="nonzero"/></g><g clip-path="url(#287cb3bce4)"><path fill="#042947" d="M 292.917969 75.039062 L 302.257812 84.378906 L 292.917969 93.71875 L 292.324219 93.625 L 265.65625 89.402344 L 233.933594 84.378906 L 265.65625 79.355469 L 292.324219 75.132812 Z M 292.917969 75.039062 " fill-opacity="1" fill-rule="nonzero"/></g><g clip-path="url(#3f8da1c31d)"><path fill="#2a4c6d" d="M 292.324219 75.132812 L 265.65625 79.355469 L 233.933594 84.378906 L 302.257812 84.378906 L 292.917969 75.039062 Z M 292.324219 75.132812 " fill-opacity="1" fill-rule="nonzero"/></g><g clip-path="url(#586f52708f)"><path fill="#042947" d="M 311.597656 93.71875 L 302.597656 84.722656 L 302.257812 84.378906 L 311.597656 75.039062 L 312.1875 75.132812 L 338.859375 79.355469 L 370.582031 84.378906 L 338.859375 89.402344 L 312.1875 93.625 Z M 311.597656 93.71875 " fill-opacity="1" fill-rule="nonzero"/></g><g clip-path="url(#5bd4a1175a)"><path fill="#2a4c6d" d="M 312.1875 93.625 L 338.859375 89.402344 L 370.582031 84.378906 L 302.257812 84.378906 L 302.597656 84.722656 L 311.597656 93.71875 Z M 312.1875 93.625 " fill-opacity="1" fill-rule="nonzero"/></g><g clip-path="url(#ffed26036a)"><g clip-path="url(#a649fd881c)"><g clip-path="url(#b36091ec3c)"><path fill="#042947" d="M 191.582031 93.355469 L 243.957031 93.355469 C 244.300781 93.355469 244.582031 93.636719 244.582031 93.980469 C 244.582031 94.328125 244.300781 94.605469 243.957031 94.605469 L 191.582031 94.605469 C 191.238281 94.605469 190.957031 94.328125 190.957031 93.980469 C 190.957031 93.636719 191.238281 93.355469 191.582031 93.355469 Z M 191.582031 93.355469 " fill-opacity="1" fill-rule="nonzero"/></g></g></g><g clip-path="url(#b100d5058e)"><g clip-path="url(#a92af009ba)"><g clip-path="url(#ff6404cd71)"><path fill="#042947" d="M 241.152344 91.050781 L 241.152344 96.867188 L 240.601562 96.867188 L 240.601562 91.050781 Z M 241.152344 91.050781 " fill-opacity="1" fill-rule="nonzero"/></g></g></g><g clip-path="url(#4f66168071)"><g clip-path="url(#cfa9cb8da3)"><g clip-path="url(#f10d62cc43)"><path fill="#042947" d="M 240.878906 96.398438 L 241.386719 96.824219 L 240.847656 98.015625 L 240.351562 96.792969 Z M 240.878906 96.398438 " fill-opacity="1" fill-rule="nonzero"/></g></g></g><g clip-path="url(#ff5ee99839)"><g clip-path="url(#c31fa08de5)"><g clip-path="url(#78484c5a59)"><path fill="#042947" d="M 240.914062 91.507812 L 241.417969 91.078125 L 240.863281 89.890625 L 240.382812 91.125 Z M 240.914062 91.507812 " fill-opacity="1" fill-rule="nonzero"/></g></g></g><g clip-path="url(#890d5c13a6)"><g clip-path="url(#3924b69ccc)"><g clip-path="url(#09f67bc08b)"><path fill="#042947" d="M 243.199219 93.921875 L 242.59375 94.957031 L 241.984375 95.988281 C 245.691406 95.195312 249.394531 94.398438 253.097656 93.605469 C 249.367188 93.085938 245.640625 92.566406 241.910156 92.042969 L 243.199219 93.921875 " fill-opacity="1" fill-rule="nonzero"/></g></g></g><g clip-path="url(#fb4b7f5f76)"><g transform="matrix(1, 0, 0, 1, 0.000000000000000111, 0)"><g clip-path="url(#ca246c4ace)"><g clip-path="url(#2809f70068)"><g transform="matrix(1, 0, 0, 1, 0.000000000000000111, 0)"><g clip-path="url(#7a1e2ee0bf)"><g clip-path="url(#9e07001f0d)"><g mask="url(#3eff3d9fe7)"><g transform="matrix(1, 0, 0, 1, 0.000000000000000111, 0)"><g clip-path="url(#119ecbdd06)"><g clip-path="url(#6d82b4576d)"><path fill="url(#eb4a71a4c0)" d="M 0.824219 0 L 0.824219 169.503906 L 374.175781 169.503906 L 374.175781 0 Z M 0.824219 0 " fill-rule="nonzero"/></g></g></g></g></g></g></g></g></g></g></g><g transform="matrix(1, 0, 0, 1, 36, 102)"><g clip-path="url(#5ed83dcb61)"><g clip-path="url(#4fc0b951db)"><g fill="#2a4c6d" fill-opacity="1"><g transform="translate(0.834495, 17.588276)"><g/></g></g></g><g fill="#2a4c6d" fill-opacity="1"><g transform="translate(6.1113, 17.588276)"><g/></g></g><g fill="#2a4c6d" fill-opacity="1"><g transform="translate(11.388106, 17.588276)"><g/></g></g><g fill="#2a4c6d" fill-opacity="1"><g transform="translate(16.673799, 17.588276)"><g><path d="M 4.09375 0 L 1.59375 0 L 1.59375 -7 L 4.09375 -7 Z M 11.328125 0 L 8.8125 0 L 8.8125 -6.6875 C 8.8125 -7.632812 8.609375 -8.300781 8.203125 -8.6875 C 7.804688 -9.070312 7.109375 -9.265625 6.109375 -9.265625 L 1.40625 -9.265625 L 1.40625 -11.515625 L 6.265625 -11.515625 C 8.097656 -11.515625 9.398438 -11.140625 10.171875 -10.390625 C 10.941406 -9.640625 11.328125 -8.398438 11.328125 -6.671875 Z M 11.328125 0 "/></g></g></g><g fill="#2a4c6d" fill-opacity="1"><g transform="translate(29.508754, 17.588276)"><g><path d="M 9.265625 -6.359375 C 9.265625 -7.398438 9.066406 -8.144531 8.671875 -8.59375 C 8.273438 -9.039062 7.582031 -9.265625 6.59375 -9.265625 L 4.125 -9.265625 L 4.125 0 L 1.609375 0 L 1.609375 -11.515625 L 6.59375 -11.515625 C 8.425781 -11.515625 9.75 -11.132812 10.5625 -10.375 C 11.375 -9.613281 11.78125 -8.378906 11.78125 -6.671875 L 11.78125 0 L 9.265625 0 Z M 9.265625 -6.359375 "/></g></g></g><g fill="#2a4c6d" fill-opacity="1"><g transform="translate(42.807399, 17.588276)"><g><path d="M 8.8125 -6.328125 C 8.8125 -7.316406 8.582031 -8.050781 8.125 -8.53125 C 7.675781 -9.019531 6.96875 -9.265625 6 -9.265625 L 3.859375 -9.265625 L 3.859375 -6.78125 L 6.109375 -6.78125 L 6.109375 -4.53125 L 1.328125 -4.53125 L 1.328125 -11.515625 L 6.015625 -11.515625 C 7.835938 -11.515625 9.179688 -11.085938 10.046875 -10.234375 C 10.910156 -9.390625 11.34375 -8.078125 11.34375 -6.296875 L 11.34375 -5.53125 C 11.34375 -1.84375 9.445312 0 5.65625 0 L 1.421875 0 L 1.421875 -2.25 L 5.609375 -2.25 C 7.742188 -2.25 8.8125 -3.347656 8.8125 -5.546875 Z M 8.8125 -6.328125 "/></g></g></g><g fill="#2a4c6d" fill-opacity="1"><g transform="translate(55.187945, 17.588276)"><g><path d="M 6.65625 -11.515625 L 9.21875 -11.515625 L 8.9375 -8.34375 C 8.863281 -7.46875 8.722656 -6.773438 8.515625 -6.265625 C 8.304688 -5.765625 8.019531 -5.367188 7.65625 -5.078125 C 7.289062 -4.796875 6.707031 -4.5625 5.90625 -4.375 L 4.515625 -4.046875 L 4.90625 -2.140625 L 5.125 -2.140625 C 6.664062 -2.140625 7.859375 -2.269531 8.703125 -2.53125 C 9.546875 -2.800781 10.171875 -3.226562 10.578125 -3.8125 C 10.992188 -4.40625 11.269531 -5.304688 11.40625 -6.515625 L 11.984375 -11.515625 L 14.578125 -11.515625 L 13.984375 -6.578125 C 13.785156 -4.984375 13.484375 -3.785156 13.078125 -2.984375 C 12.679688 -2.191406 12.101562 -1.578125 11.34375 -1.140625 C 10.582031 -0.703125 9.539062 -0.382812 8.21875 -0.1875 C 6.90625 0 5.066406 0.09375 2.703125 0.09375 L 0.53125 -11.515625 L 3.15625 -11.515625 L 4.171875 -5.96875 L 4.84375 -6.09375 C 5.257812 -6.175781 5.566406 -6.3125 5.765625 -6.5 C 5.972656 -6.695312 6.128906 -6.988281 6.234375 -7.375 C 6.335938 -7.757812 6.429688 -8.445312 6.515625 -9.4375 Z M 6.65625 -11.515625 "/></g></g></g><g fill="#2a4c6d" fill-opacity="1"><g transform="translate(70.29499, 17.588276)"><g><path d="M 7.75 -11.5625 C 9.332031 -11.5625 10.484375 -11.097656 11.203125 -10.171875 C 11.921875 -9.253906 12.28125 -7.816406 12.28125 -5.859375 L 12.28125 0 L 6.296875 0 L 6.296875 -2.25 L 9.75 -2.25 L 9.75 -5.65625 C 9.75 -6.957031 9.59375 -7.890625 9.28125 -8.453125 C 8.96875 -9.023438 8.421875 -9.3125 7.640625 -9.3125 C 6.910156 -9.3125 6.296875 -8.945312 5.796875 -8.21875 C 5.304688 -7.5 4.847656 -6.265625 4.421875 -4.515625 L 3.296875 0 L 0.625 0 L 1.890625 -4.8125 C 2.191406 -5.96875 2.476562 -6.878906 2.75 -7.546875 L 0.453125 -11.390625 L 3.234375 -11.390625 L 4.09375 -9.75 C 4.46875 -10.320312 4.976562 -10.765625 5.625 -11.078125 C 6.269531 -11.398438 6.976562 -11.5625 7.75 -11.5625 Z M 7.75 -11.5625 "/></g></g></g><g fill="#2a4c6d" fill-opacity="1"><g transform="translate(84.085155, 17.588276)"><g><path d="M 4.09375 0 L 1.59375 0 L 1.59375 -7 L 4.09375 -7 Z M 11.328125 0 L 8.8125 0 L 8.8125 -6.6875 C 8.8125 -7.632812 8.609375 -8.300781 8.203125 -8.6875 C 7.804688 -9.070312 7.109375 -9.265625 6.109375 -9.265625 L 1.40625 -9.265625 L 1.40625 -11.515625 L 6.265625 -11.515625 C 8.097656 -11.515625 9.398438 -11.140625 10.171875 -10.390625 C 10.941406 -9.640625 11.328125 -8.398438 11.328125 -6.671875 Z M 11.328125 0 "/></g></g></g><g fill="#2a4c6d" fill-opacity="1"><g transform="translate(96.92011, 17.588276)"><g/></g></g><g fill="#2a4c6d" fill-opacity="1"><g transform="translate(102.196915, 17.588276)"><g><path d="M 2.4375 -9.265625 L 0.671875 -9.265625 L 0.671875 -11.515625 L 7.125 -11.515625 C 8.90625 -11.515625 10.179688 -11.140625 10.953125 -10.390625 C 11.734375 -9.640625 12.125 -8.394531 12.125 -6.65625 L 12.125 0 L 9.609375 0 L 9.609375 -6.609375 C 9.609375 -7.597656 9.40625 -8.285156 9 -8.671875 C 8.601562 -9.066406 7.929688 -9.265625 6.984375 -9.265625 L 4.9375 -9.265625 L 4.9375 -4.40625 C 4.9375 -3.332031 4.8125 -2.472656 4.5625 -1.828125 C 4.320312 -1.191406 3.941406 -0.726562 3.421875 -0.4375 C 2.910156 -0.144531 2.171875 0 1.203125 0 L 0.5625 0 L 0.5625 -2.25 L 0.71875 -2.25 C 1.15625 -2.25 1.492188 -2.328125 1.734375 -2.484375 C 1.984375 -2.640625 2.160156 -2.882812 2.265625 -3.21875 C 2.378906 -3.550781 2.4375 -4.054688 2.4375 -4.734375 Z M 2.4375 -9.265625 "/></g></g></g><g fill="#2a4c6d" fill-opacity="1"><g transform="translate(115.449185, 17.588276)"><g><path d="M 1.796875 -2.140625 C 3.578125 -2.722656 4.960938 -3.492188 5.953125 -4.453125 C 6.941406 -5.410156 7.4375 -6.460938 7.4375 -7.609375 C 7.4375 -8.710938 6.742188 -9.265625 5.359375 -9.265625 L 0.65625 -9.265625 L 0.65625 -15.453125 L 3.203125 -15.453125 L 3.203125 -11.515625 L 5.78125 -11.515625 C 8.5625 -11.515625 9.953125 -10.300781 9.953125 -7.875 C 9.953125 -5.945312 9.226562 -4.25 7.78125 -2.78125 C 6.34375 -1.320312 4.347656 -0.210938 1.796875 0.546875 Z M 1.796875 -2.140625 "/></g></g></g><g fill="#2a4c6d" fill-opacity="1"><g transform="translate(125.928592, 17.588276)"><g><path d="M 9.46875 -5.53125 C 9.46875 -3.695312 8.992188 -2.316406 8.046875 -1.390625 C 7.109375 -0.460938 5.703125 0 3.828125 0 L 0.75 0 L 0.75 -2.25 L 3.6875 -2.25 C 4.789062 -2.25 5.609375 -2.523438 6.140625 -3.078125 C 6.671875 -3.640625 6.9375 -4.488281 6.9375 -5.625 L 6.9375 -5.875 C 6.9375 -7.03125 6.671875 -7.882812 6.140625 -8.4375 C 5.609375 -8.988281 4.800781 -9.265625 3.71875 -9.265625 L 0.75 -9.265625 L 0.75 -11.515625 L 3.953125 -11.515625 C 7.628906 -11.515625 9.46875 -9.675781 9.46875 -6 Z M 9.46875 -5.53125 "/></g></g></g><g fill="#2a4c6d" fill-opacity="1"><g transform="translate(136.055594, 17.588276)"><g><path d="M 1.796875 -2.140625 C 3.578125 -2.722656 4.960938 -3.492188 5.953125 -4.453125 C 6.941406 -5.410156 7.4375 -6.460938 7.4375 -7.609375 C 7.4375 -8.710938 6.742188 -9.265625 5.359375 -9.265625 L 0.65625 -9.265625 L 0.65625 -15.453125 L 3.203125 -15.453125 L 3.203125 -11.515625 L 5.78125 -11.515625 C 8.5625 -11.515625 9.953125 -10.300781 9.953125 -7.875 C 9.953125 -5.945312 9.226562 -4.25 7.78125 -2.78125 C 6.34375 -1.320312 4.347656 -0.210938 1.796875 0.546875 Z M 1.796875 -2.140625 "/></g></g></g><g fill="#2a4c6d" fill-opacity="1"><g transform="translate(146.535001, 17.588276)"><g><path d="M 9.46875 -5.53125 C 9.46875 -3.695312 8.992188 -2.316406 8.046875 -1.390625 C 7.109375 -0.460938 5.703125 0 3.828125 0 L 0.75 0 L 0.75 -2.25 L 3.6875 -2.25 C 4.789062 -2.25 5.609375 -2.523438 6.140625 -3.078125 C 6.671875 -3.640625 6.9375 -4.488281 6.9375 -5.625 L 6.9375 -5.875 C 6.9375 -7.03125 6.671875 -7.882812 6.140625 -8.4375 C 5.609375 -8.988281 4.800781 -9.265625 3.71875 -9.265625 L 0.75 -9.265625 L 0.75 -11.515625 L 3.953125 -11.515625 C 7.628906 -11.515625 9.46875 -9.675781 9.46875 -6 Z M 9.46875 -5.53125 "/></g></g></g><g fill="#2a4c6d" fill-opacity="1"><g transform="translate(156.662003, 17.588276)"><g><path d="M 1.796875 -2.140625 C 3.578125 -2.722656 4.960938 -3.492188 5.953125 -4.453125 C 6.941406 -5.410156 7.4375 -6.460938 7.4375 -7.609375 C 7.4375 -8.710938 6.742188 -9.265625 5.359375 -9.265625 L 0.65625 -9.265625 L 0.65625 -15.453125 L 3.203125 -15.453125 L 3.203125 -11.515625 L 5.78125 -11.515625 C 8.5625 -11.515625 9.953125 -10.300781 9.953125 -7.875 C 9.953125 -5.945312 9.226562 -4.25 7.78125 -2.78125 C 6.34375 -1.320312 4.347656 -0.210938 1.796875 0.546875 Z M 1.796875 -2.140625 "/></g></g></g><g fill="#2a4c6d" fill-opacity="1"><g transform="translate(167.521643, 17.588276)"><g/></g></g><g fill="#2a4c6d" fill-opacity="1"><g transform="translate(172.798449, 17.588276)"><g><path d="M 1.609375 -11.515625 L 4.125 -11.515625 L 4.125 3.578125 L 1.609375 3.578125 Z M 1.609375 -11.515625 "/></g></g></g><g fill="#2a4c6d" fill-opacity="1"><g transform="translate(178.529664, 17.588276)"><g><path d="M 1.609375 -11.515625 L 4.125 -11.515625 L 4.125 0 L 1.609375 0 Z M 1.609375 -11.515625 "/></g></g></g><g fill="#2a4c6d" fill-opacity="1"><g transform="translate(184.260879, 17.588276)"><g><path d="M 9.46875 -5.53125 C 9.46875 -3.695312 8.992188 -2.316406 8.046875 -1.390625 C 7.109375 -0.460938 5.703125 0 3.828125 0 L 0.75 0 L 0.75 -2.25 L 3.6875 -2.25 C 4.789062 -2.25 5.609375 -2.523438 6.140625 -3.078125 C 6.671875 -3.640625 6.9375 -4.488281 6.9375 -5.625 L 6.9375 -5.875 C 6.9375 -7.03125 6.671875 -7.882812 6.140625 -8.4375 C 5.609375 -8.988281 4.800781 -9.265625 3.71875 -9.265625 L 0.75 -9.265625 L 0.75 -11.515625 L 3.953125 -11.515625 C 7.628906 -11.515625 9.46875 -9.675781 9.46875 -6 Z M 9.46875 -5.53125 "/></g></g></g><g fill="#2a4c6d" fill-opacity="1"><g transform="translate(194.768115, 17.588276)"><g><path d="M 6.671875 0 L 0.671875 0 L 0.671875 -2.25 L 4.171875 -2.25 L 4.171875 -6.5 C 4.171875 -7.332031 4.113281 -7.925781 4 -8.28125 C 3.882812 -8.632812 3.695312 -8.882812 3.4375 -9.03125 C 3.175781 -9.1875 2.796875 -9.265625 2.296875 -9.265625 L 1.203125 -9.265625 L 1.203125 -11.515625 L 2.78125 -11.515625 C 3.84375 -11.515625 4.632812 -11.367188 5.15625 -11.078125 C 5.6875 -10.796875 6.070312 -10.332031 6.3125 -9.6875 C 6.550781 -9.039062 6.671875 -8.140625 6.671875 -6.984375 Z M 6.671875 0 "/></g></g></g><g fill="#2a4c6d" fill-opacity="1"><g transform="translate(202.956897, 17.588276)"><g/></g></g><g fill="#2a4c6d" fill-opacity="1"><g transform="translate(208.233703, 17.588276)"><g><path d="M 1.609375 -11.515625 L 4.125 -11.515625 L 4.125 3.578125 L 1.609375 3.578125 Z M 1.609375 -11.515625 "/></g></g></g><g fill="#2a4c6d" fill-opacity="1"><g transform="translate(213.964918, 17.588276)"><g><path d="M 1.609375 -11.515625 L 4.125 -11.515625 L 4.125 0 L 1.609375 0 Z M 1.609375 -11.515625 "/></g></g></g><g fill="#2a4c6d" fill-opacity="1"><g transform="translate(219.696134, 17.588276)"><g><path d="M 1.609375 -11.515625 L 4.125 -11.515625 L 4.125 0 L 1.609375 0 Z M 1.609375 -11.515625 "/></g></g></g><g fill="#2a4c6d" fill-opacity="1"><g transform="translate(225.427349, 17.588276)"><g><path d="M 1.609375 -11.515625 L 4.125 -11.515625 L 4.125 -5.40625 L 1.609375 -5.40625 Z M 1.609375 -11.515625 "/></g></g></g><g fill="#2a4c6d" fill-opacity="1"><g transform="translate(231.158564, 17.588276)"><g><path d="M 9.46875 -5.53125 C 9.46875 -3.695312 8.992188 -2.316406 8.046875 -1.390625 C 7.109375 -0.460938 5.703125 0 3.828125 0 L 0.75 0 L 0.75 -2.25 L 3.6875 -2.25 C 4.789062 -2.25 5.609375 -2.523438 6.140625 -3.078125 C 6.671875 -3.640625 6.9375 -4.488281 6.9375 -5.625 L 6.9375 -5.875 C 6.9375 -7.03125 6.671875 -7.882812 6.140625 -8.4375 C 5.609375 -8.988281 4.800781 -9.265625 3.71875 -9.265625 L 0.75 -9.265625 L 0.75 -11.515625 L 3.953125 -11.515625 C 7.628906 -11.515625 9.46875 -9.675781 9.46875 -6 Z M 9.46875 -5.53125 "/></g></g></g></g></g><g clip-path="url(#0a857210e6)"><g clip-path="url(#a188dac469)"><g clip-path="url(#7b5e0d980b)"><path fill="#042947" d="M 167.617188 94.238281 L 115.246094 94.238281 C 114.898438 94.238281 114.621094 93.957031 114.621094 93.613281 C 114.621094 93.265625 114.898438 92.988281 115.246094 92.988281 L 167.617188 92.988281 C 167.964844 92.988281 168.246094 93.265625 168.246094 93.613281 C 168.246094 93.957031 167.964844 94.238281 167.617188 94.238281 Z M 167.617188 94.238281 " fill-opacity="1" fill-rule="nonzero"/></g></g></g><g clip-path="url(#a182f465d2)"><g clip-path="url(#c8793d1ea6)"><g clip-path="url(#71af0ccb1a)"><path fill="#042947" d="M 118.046875 96.542969 L 118.046875 90.726562 L 118.601562 90.726562 L 118.601562 96.542969 Z M 118.046875 96.542969 " fill-opacity="1" fill-rule="nonzero"/></g></g></g><g clip-path="url(#946873b998)"><g clip-path="url(#fb473885d1)"><g clip-path="url(#0f26fe8f29)"><path fill="#042947" d="M 118.324219 91.195312 L 117.816406 90.769531 L 118.355469 89.578125 L 118.851562 90.800781 Z M 118.324219 91.195312 " fill-opacity="1" fill-rule="nonzero"/></g></g></g><g clip-path="url(#d031015107)"><g clip-path="url(#e1b69127d3)"><g clip-path="url(#4ddc659a1b)"><path fill="#042947" d="M 118.285156 96.085938 L 117.785156 96.515625 L 118.339844 97.703125 L 118.820312 96.46875 Z M 118.285156 96.085938 " fill-opacity="1" fill-rule="nonzero"/></g></g></g><g clip-path="url(#10e51534c6)"><g clip-path="url(#0f241d24fc)"><g clip-path="url(#e7b396caf2)"><path fill="#042947" d="M 116.003906 93.671875 L 116.609375 92.640625 L 117.214844 91.605469 C 113.511719 92.398438 109.808594 93.195312 106.105469 93.988281 C 109.832031 94.507812 113.5625 95.03125 117.289062 95.550781 L 116.003906 93.671875 " fill-opacity="1" fill-rule="nonzero"/></g></g></g></g></g></g></svg>